<?xml version="1.0" encoding="UTF-8"?>
<svg id="Layer_1" data-name="Layer 1" xmlns="http://www.w3.org/2000/svg" xmlns:xlink="http://www.w3.org/1999/xlink" viewBox="0 0 617 797">
  <defs>
    <style>
      .cls-1 {
        clip-path: url(#clippath-5);
      }

      .cls-1, .cls-2, .cls-3, .cls-4, .cls-5, .cls-6, .cls-7, .cls-8 {
        stroke-width: 0px;
      }

      .cls-1, .cls-2, .cls-3, .cls-5, .cls-6, .cls-7 {
        fill: none;
      }

      .cls-1, .cls-3, .cls-5, .cls-6 {
        clip-rule: evenodd;
      }

      .cls-9 {
        clip-path: url(#clippath-2);
      }

      .cls-10 {
        clip-path: url(#clippath-6);
      }

      .cls-3 {
        clip-path: url(#clippath-3);
      }

      .cls-11 {
        clip-path: url(#clippath-4);
      }

      .cls-4 {
        fill: #18181b;
      }

      .cls-5 {
        clip-path: url(#clippath-7);
      }

      .cls-6 {
        clip-path: url(#clippath);
      }

      .cls-12 {
        clip-path: url(#clippath-8);
      }

      .cls-7 {
        clip-path: url(#clippath-1);
      }

      .cls-8 {
        fill: #fff;
      }
    </style>
    <clipPath id="clippath">
      <rect class="cls-2" x="5" y="280" width="512" height="512"/>
    </clipPath>
    <clipPath id="clippath-1">
      <path class="cls-6" d="M261,792c141.38,0,256-114.62,256-256s-114.62-256-256-256S5,394.62,5,536s114.62,256,256,256h0ZM261,792"/>
    </clipPath>
    <clipPath id="clippath-2">
      <rect class="cls-7" x="5" width="612" height="792"/>
    </clipPath>
    <clipPath id="clippath-3">
      <rect class="cls-2" x="5" y="280" width="512" height="512"/>
    </clipPath>
    <clipPath id="clippath-4">
      <path class="cls-3" d="M329.86,518.4c-18.35,0-27.73,14.44-27.73,36.2,0,20.57,10.14,36,27.73,36,19.89,0,27.35-18.2,27.35-36-.01-18.59-9.38-36.2-27.35-36.2M281.1,464.41h21.8v52.22h.39c5.93-9.89,18.36-16.02,29.45-16.02,31.16,0,46.27,24.53,46.27,54.4,0,27.48-13.38,53.4-42.64,53.4-13.38,0-27.73-3.35-34.23-16.81h-.38v14.05h-20.65v-141.24h0"/>
    </clipPath>
    <clipPath id="clippath-5">
      <rect class="cls-2" x="5" y="280" width="512" height="512"/>
    </clipPath>
    <clipPath id="clippath-6">
      <path class="cls-1" d="M459.39,537.6c-1.72-12.46-10.51-19.19-22.56-19.19-11.29,0-27.15,6.14-27.15,37.19,0,17.01,7.26,35.02,26.2,35.02,12.62,0,21.41-8.71,23.52-23.35h21.8c-4.02,26.51-19.88,41.14-45.32,41.14-30.98,0-47.99-22.74-47.99-52.81s16.25-54.99,48.76-54.99c22.94,0,42.45,11.87,44.55,36.99h-21.8"/>
    </clipPath>
    <clipPath id="clippath-7">
      <rect class="cls-2" x="5" y="280" width="512" height="512"/>
    </clipPath>
    <clipPath id="clippath-8">
      <polyline class="cls-5" points="204.9 605.34 41.41 605.34 117.75 464.41 281.24 464.41 204.9 605.34"/>
    </clipPath>
  </defs>
  <g class="cls-9">
    <rect class="cls-4" y="275" width="522" height="522"/>
  </g>
  <g class="cls-11">
    <rect class="cls-8" x="276.1" y="459.41" width="107.9" height="154"/>
  </g>
  <g class="cls-10">
    <rect class="cls-8" x="382.88" y="495.61" width="103.31" height="117.8"/>
  </g>
  <g class="cls-12">
    <rect class="cls-8" x="36.41" y="459.41" width="249.83" height="150.93"/>
  </g>
</svg>