<svg width="512" height="512" viewBox="0 0 512 512" fill="none" xmlns="http://www.w3.org/2000/svg">
<g clip-path="url(#clip0_287_75)">
<circle cx="256" cy="256" r="151" fill="white"/>
<path d="M256 0C205.368 0 155.873 15.0141 113.774 43.1438C71.6751 71.2734 38.863 111.255 19.487 158.033C0.11092 204.811 -4.95873 256.284 4.91908 305.943C14.7969 355.602 39.1785 401.217 74.9808 437.019C110.783 472.822 156.398 497.203 206.057 507.081C255.716 516.959 307.189 511.889 353.967 492.513C400.745 473.137 440.727 440.325 468.856 398.226C496.986 356.127 512 306.632 512 256C512 188.105 485.029 122.99 437.019 74.9807C389.01 26.9714 323.896 0 256 0ZM328.825 166.602C328.825 171.419 326.804 173.339 322.089 173.339C313.027 173.339 303.966 173.339 294.939 173.709C285.912 174.08 280.994 178.189 280.994 187.621C280.792 197.726 280.994 207.629 280.994 217.937H319.764C325.289 217.937 327.175 219.823 327.175 225.381C327.175 238.855 327.175 252.396 327.175 266.004C327.175 271.495 325.423 273.213 319.865 273.246H280.657V382.855C280.657 388.716 278.838 390.568 273.044 390.568H230.872C225.785 390.568 223.798 388.581 223.798 383.495V273.415H190.316C185.061 273.415 183.175 271.495 183.175 266.206C183.175 252.575 183.175 238.956 183.175 225.347C183.175 220.093 185.162 218.105 190.35 218.105H223.798V188.632C223.401 175.392 226.578 162.291 232.994 150.703C239.664 139.005 250.352 130.124 263.074 125.709C271.33 122.705 280.057 121.2 288.842 121.263H321.954C326.703 121.263 328.691 123.352 328.691 128C328.859 140.968 328.859 153.802 328.825 166.602Z" fill="#18181B"/>
</g>
<defs>
<clipPath id="clip0_287_75">
<rect width="512" height="512" fill="white"/>
</clipPath>
</defs>
</svg>
